# xmcd
#
# Track frame offsets:
#	150
#	20832
#	35805
#	54650
#	77360
#	95297
#	130675
#	166345
#	190590
#	220960
#	233802
#	267302
#	293987
#
# Disc length: 4526 seconds
#
# Revision: 1
# Processed by: cddbd v1.5.1PL0 Copyright (c) Steve Scherf et al.
# Submitted via: CDex 1.50Beta5
#
DISCID=b311ac0d
DTITLE=ポール・クロスリー - ラヴェル ピアノ独奏曲全集
DYEAR=1900
DGENRE=Classical
TTITLE0=ソナチネ モデレ
TTITLE1=ソナチネ メヌエット
TTITLE2=ソナチネ アニメ
TTITLE3=鏡 第1曲 蛾
TTITLE4=鏡 第2曲 悲しい鳥
TTITLE5=鏡 第3曲 海原の小舟
TTITLE6=鏡 第4曲 道化師の朝の歌
TTITLE7=鏡 第5曲 鐘の谷
TTITLE8=古風なメヌエット
TTITLE9=ハバネラ
TTITLE10=夜のガスパール 第1曲 オンディーヌ
TTITLE11=夜のガスパール 第2曲 絞首台
TTITLE12=夜のガスパール 第3曲 スカルボ
EXTD=
EXTT0=
EXTT1=
EXTT2=
EXTT3=
EXTT4=
EXTT5=
EXTT6=
EXTT7=
EXTT8=
EXTT9=
EXTT10=
EXTT11=
EXTT12=
PLAYORDER=
